# xmcd
#
# Track frame offsets:
#	150
#	17407
#	37046
#	52130
#	74694
#	90677
#	113390
#	130638
#	147522
#	162962
#	183436
#	200308
#
# Disc length: 2935 seconds
#
# Revision: 0
# Processed by: cddbd v1.4PL0 Copyright (c) Steve Scherf et al.
# Submitted via: audiograbber 1.82.01
#
DISCID=a50b750c
DTITLE=Matatoa - Ma'ohi
DYEAR=2003
DGENRE=polinesico
TTITLE0=Fusion Natural
TTITLE1=Hiva
TTITLE2=Oroi
TTITLE3=Henua
TTITLE4=Here Ma' Ohi
TTITLE5=Tagi Tagi
TTITLE6=A Rote Toke Rau
TTITLE7=Tau Rea Rea
TTITLE8=Tama'i
TTITLE9=Ko Te Reka
TTITLE10=E'Ui
TTITLE11=Hoi
EXTD=
EXTT0=
EXTT1=
EXTT2=
EXTT3=
EXTT4=
EXTT5=
EXTT6=
EXTT7=
EXTT8=
EXTT9=
EXTT10=
EXTT11=
PLAYORDER=
